<?xml version="1.0" standalone="no"?>
<!DOCTYPE svg PUBLIC "-//W3C//DTD SVG 20010904//EN"
 "http://www.w3.org/TR/2001/REC-SVG-20010904/DTD/svg10.dtd">
<svg version="1.0" xmlns="http://www.w3.org/2000/svg"
 width="613.000000pt" height="613.000000pt" viewBox="0 0 613.000000 613.000000"
 preserveAspectRatio="xMidYMid meet">
<g transform="translate(0.000000,613.000000) scale(0.100000,-0.100000)"
fill="#ef3e41" stroke="none">
<path d="M2756 6119 c-395 -41 -742 -141 -1087 -315 -811 -409 -1395 -1158
-1593 -2044 -94 -422 -97 -862 -10 -1290 82 -399 263 -812 502 -1145 418 -581
1029 -1000 1717 -1175 556 -142 1155 -122 1704 55 140 45 236 86 532 223 130
60 260 115 289 122 102 24 276 -2 461 -70 44 -17 175 -73 289 -125 265 -120
313 -132 326 -81 7 30 -14 89 -110 299 -138 301 -191 463 -203 615 -8 110 8
159 145 452 65 140 138 303 160 362 80 204 146 468 179 715 24 181 24 580 -1
758 -49 363 -135 642 -295 970 -148 301 -329 553 -571 795 -472 473 -1040 757
-1715 860 -160 25 -565 35 -719 19z m547 -1295 c208 -29 442 -111 630 -221
134 -80 231 -156 357 -283 258 -258 418 -566 488 -935 27 -143 24 -475 -6
-623 -224 -1116 -1401 -1735 -2433 -1281 -211 92 -389 219 -559 396 -209 218
-339 444 -424 735 -83 285 -87 621 -11 912 34 131 71 227 156 406 l74 155 0
100 c-1 115 -17 170 -108 371 -71 154 -76 174 -47 174 12 0 86 -29 163 -64
192 -87 272 -111 372 -111 75 0 87 3 185 49 198 92 331 146 418 170 246 70
485 86 745 50z"/>
</g>
</svg>
